<svg xmlns="http://www.w3.org/2000/svg" viewBox="0 0 107.96 87.68"><defs><style>.cls-1{fill:#6c6c6c;}</style></defs><title>Collateral</title><g id="Layer_2" data-name="Layer 2"><g id="Illustration"><path class="cls-1" d="M9.77,53.81,82.86,6.7,70.56,4A2,2,0,0,1,69,1.55,2,2,0,0,1,70.94,0a2,2,0,0,1,.42,0L88.3,3.75A2.05,2.05,0,0,1,89.81,6.1L86.11,23a2,2,0,0,1-1.92,1.57h0a2,2,0,0,1-.42,0,1.94,1.94,0,0,1-1.23-.85,1.9,1.9,0,0,1-.25-1.46L85,10,11.9,57.14Z"/><path class="cls-1" d="M2,87.68a2,2,0,1,1,0-4H5V70.85a2,2,0,0,1,2-2H21.79a2,2,0,0,1,2,2V83.73h6V58.47a2,2,0,0,1,2-2H46.55a2,2,0,0,1,2,2V83.73h6V46.08a2,2,0,0,1,2-2H71.32a2,2,0,0,1,2,2V83.73h6v-50a2,2,0,0,1,2-2H96.08a2,2,0,0,1,2,2v50h6V11.42a2,2,0,1,1,4,0V87.68Zm81.22-4H94.1V35.68H83.2Zm-24.76,0H69.34V48.06H58.43Zm-24.76,0H44.58V60.44H33.67Zm-24.76,0H19.81V72.83H8.91Z"/></g></g></svg>