<?xml version="1.0" encoding="utf-8"?>
<!-- Generator: Adobe Illustrator 21.0.0, SVG Export Plug-In . SVG Version: 6.00 Build 0)  -->
<svg version="1.1" id="Layer_1" xmlns="http://www.w3.org/2000/svg" xmlns:xlink="http://www.w3.org/1999/xlink" x="0px" y="0px"
	 viewBox="0 0 358.6 85" style="enable-background:new 0 0 358.6 85;" xml:space="preserve">
<style type="text/css">
	.st0{fill:#131C26;}
	.st1{fill:#2299DD;}
</style>
<g>
	<path class="st0" d="M303,67.9c-0.2,0-0.3,0-0.4,0c-4.5-0.1-10.2-0.7-14.2-4.8c-3-3.1-4.4-8.5-4.4-17V21.2h5.9v24.9
		c0,8.4,1.5,12.5,2.8,13.8c2,2,5.1,3,10.1,3h0.3c1.5,0,5-0.5,8.4-1c2.4-0.4,4.1-2.4,4.1-4.8v-36h5.9v46
		C321.3,67.2,306.6,67.9,303,67.9z"/>
</g>
<g>
	<path class="st0" d="M201.3,68c-4.6,0-8.3-1.2-11-3.6c-2.8-2.4-4.3-6.2-4.3-10.7c0-5,2-9,5.8-11.9c3.6-2.7,8.7-4,15-4
		c2.3,0,5.3,0.2,8.6,1.1c-0.1-3.3-0.6-6.6-2.6-8.6c-3.7-3.7-8.9-4.1-12.6-4.1c-4.4,0-9.2,0.2-9.2,0.2l-0.2-5.8c0,0,4.9-0.2,9.4-0.2
		c2.7,0,10.9,0,16.7,5.8c4.3,4.3,4.3,11,4.3,14.6v26.4l-2.7,0.2C218.2,67.4,208.9,68,201.3,68z M206.8,43.5c-5.1,0-8.9,1-11.5,2.9
		c-2.4,1.8-3.5,4.1-3.5,7.3c0,2.8,0.8,5.8,2.3,7.1c1.6,1.4,4.1,2.1,7.2,2.1c3.1,0,6.5-0.1,9.5-0.2c2.6-0.1,4.7-2.2,4.7-4.8v-9.3
		c0-2.4-1.8-4.4-4.2-4.8C209.6,43.6,208.1,43.5,206.8,43.5z"/>
</g>
<g>
	<path class="st0" d="M247.3,68c-6.2,0-11.6-2.2-15.3-6.3c-3.7-4-5.6-9.9-5.6-17.1c0-7,2.1-12.9,6.4-17.4c4.3-4.6,9.7-6.9,16.1-6.9
		c3.6,0,6.4,0.3,9,0.8c1.1,0.2,2.3,0.6,3.4,1v-22h5.9v67C267.1,67.2,251.2,68,247.3,68z M248.9,26.2c-4.8,0-8.7,1.6-11.8,5
		c-3.2,3.4-4.8,7.9-4.8,13.5c0,5.7,1.4,10.3,4.1,13.2c2.6,2.8,6.5,5.1,11,5.1c2.1,0,5.8-0.1,9.3-0.3c2.6-0.1,4.7-2.2,4.7-4.8v-5.5
		V31.7c0-2.2-1.5-4.1-3.6-4.6c-0.4-0.1-0.7-0.2-1.1-0.3C254.5,26.4,252,26.2,248.9,26.2z"/>
</g>
<g>
	<g>
		<path class="st1" d="M7.9,67.9C7.5,67.7,0,62.4,0,55V0.1h5.9V55c0,4.4,5.3,8.1,5.3,8.1L7.9,67.9z"/>
	</g>
	<g>
		<path class="st1" d="M34.9,68c-7,0-12.6-2.3-16.5-6.7s-5.8-10.2-5.8-17.2c0-6.9,2.1-12.6,6.1-17c4.1-4.5,9.6-6.8,16.3-6.8
			c7,0,12.5,2.2,16.5,6.5c3.9,4.3,5.8,10.1,5.8,17.2c0,7.2-2,13-5.9,17.3C47.3,65.7,41.8,68,34.9,68z M34.9,26
			c-5,0-8.9,1.6-11.9,4.9c-3.1,3.4-4.6,7.7-4.6,13.1c0,5.7,1.4,10.1,4.4,13.4c2.9,3.2,6.8,4.8,12.1,4.8c5.2,0,9.1-1.6,12-4.7
			c3-3.3,4.4-7.7,4.4-13.5c0-5.7-1.5-10.2-4.3-13.4C44.2,27.5,40.3,26,34.9,26z"/>
	</g>
	<g>
		<path class="st1" d="M80.1,85c-4.6,0-11.9-0.3-12.2-0.3l0.3-5.8c0.1,0,7.5,0.3,12,0.3c4.1,0,9.6,0,13.1-3.5
			c2.1-2.1,3.1-5.4,3.1-10.2c0,0,0-0.1,0-0.2c-1,0.5-2,0.9-2.7,1.2c-3.2,1.1-6.2,1.3-10.4,1.3c-6.8,0-12.2-2.1-16.1-6.3
			c-3.9-4.1-5.8-9.9-5.8-17.1c0-7.3,2.2-13.2,6.6-17.6s10.1-6.6,16.9-6.6c2.2,0,10.2,0.4,14.8,0.6l2.8,0.1v8.2
			c0,0-0.1,33.7-0.1,36.3c0,6.4-1.6,11-4.8,14.2C92.1,85,84.9,85,80.1,85z M84.7,26.1c-5.2,0-9.4,1.6-12.7,4.9
			c-3.3,3.3-4.9,7.7-4.9,13.5c0,5.7,1.4,10.2,4.3,13.2c2.8,3,6.7,4.4,11.8,4.4c3.6,0,6.1-0.2,8.5-1c0.5-0.2,1.2-0.5,2-0.9
			c1.6-0.8,2.7-2.5,2.7-4.3c0-7.7,0.1-18.7,0.1-24.8c0-2.6-2-4.7-4.7-4.8C88.1,26.2,85.6,26.1,84.7,26.1z"/>
	</g>
	<g>
		<path class="st1" d="M156.4,67.2h-5.9V41.9c0-8.2-1.5-11.4-2.8-12.7c-2-2-5.1-3-10.1-3h-0.3c-1.5,0-5,0.5-8.4,1
			c-2.4,0.4-4.1,2.4-4.1,4.8v35.3H119v-46c0,0,14.7-0.9,18.4-0.9c0.2,0,0.3,0,0.4,0c4.5,0.1,10.2,0.7,14.2,4.8
			c3,3.1,4.4,8.4,4.4,16.7L156.4,67.2L156.4,67.2z"/>
	</g>
	<g>
		<g>
			<rect x="107.4" y="21.2" class="st1" width="5.9" height="46"/>
		</g>
		<path class="st1" d="M110.2,0c-1.2,0-2.1,0.4-2.9,1.2s-1.2,1.7-1.2,2.9s0.4,2.1,1.2,2.9c0.8,0.8,1.8,1.2,2.9,1.2h4.2V4.1
			c0-1.2-0.4-2.1-1.2-2.9C112.3,0.4,111.4,0,110.2,0z"/>
	</g>
</g>
<g>
	<g>
		<rect x="272.5" y="21.2" class="st0" width="5.9" height="46"/>
	</g>
	<path class="st0" d="M278.1,1.4c-0.8-0.8-1.7-1.1-2.8-1.1c-1.1,0-2,0.4-2.8,1.1c-0.8,0.8-1.2,1.6-1.2,2.7s0.4,2,1.2,2.7
		c0.8,0.8,1.7,1.1,2.8,1.1h3.9V4.1C279.2,3,278.9,2.2,278.1,1.4z"/>
</g>
<path class="st0" d="M181,20.4c-0.1,0-0.3,0-0.4,0c-3.6,0-18.4,0.9-18.4,0.9v46h5.9V31.9c0-2.4,1.8-4.4,4.1-4.8c3.4-0.5,6.9-1,8.4-1
	h0.3c2.1,0,3.5-0.1,5.3,0.1v-5.9C184.7,20.1,183,20.4,181,20.4z"/>
<g>
	<path class="st0" d="M357.7,55.8c-0.3,8.1-6.3,12.1-17.1,12.1c-6.2,0-14.2-0.8-14.2-0.8v-6.2c0,0,3.7,1.2,14,1.2
		c4.9,0,10.8-1.1,11.4-6.3c1.5-13.3-25.9-2.6-25.9-21.8c0-6.5,4.3-12.7,16.6-12.7c4.9,0,13.9,0.4,13.9,0.4V28c0,0-3.9-1.3-13.1-1.2
		c-4.8,0-11.3,2-11.2,7.1C332.2,47,358.5,35.5,357.7,55.8z"/>
</g>
<g>
	<path class="st0" d="M358.6,65"/>
</g>
</svg>
