<?xml version="1.0" encoding="utf-8"?>
<!-- Generator: Adobe Illustrator 21.0.0, SVG Export Plug-In . SVG Version: 6.00 Build 0)  -->
<svg version="1.1" id="Layer_1" xmlns="http://www.w3.org/2000/svg" xmlns:xlink="http://www.w3.org/1999/xlink" x="0px" y="0px"
	 viewBox="0 0 392.4 93" style="enable-background:new 0 0 392.4 93;" xml:space="preserve">
<style type="text/css">
	.st0{fill:#FFFFFF;}
</style>
<g>
	<g>
		<path class="st0" d="M331.5,74.3c-0.2,0-0.3,0-0.4,0c-4.9-0.1-11.2-0.8-15.5-5.3c-3.3-3.4-4.8-9.3-4.8-18.6V23.2h6.5v27.2
			c0,9.2,1.6,13.7,3.1,15.1c2.2,2.2,5.6,3.3,11.1,3.3h0.3c1.6,0,5.5-0.5,9.2-1.1c2.6-0.4,4.5-2.6,4.5-5.3V23.1h6.5v50.3
			C351.5,73.5,335.5,74.3,331.5,74.3z"/>
	</g>
	<g>
		<path class="st0" d="M220.2,74.4c-5,0-9.1-1.3-12-3.9c-3.1-2.6-4.7-6.8-4.7-11.7c0-5.5,2.2-9.8,6.3-13c3.9-3,9.5-4.4,16.4-4.4
			c2.5,0,5.8,0.2,9.4,1.2c-0.1-3.6-0.7-7.2-2.8-9.4c-4-4-9.7-4.5-13.8-4.5c-4.8,0-10.1,0.2-10.1,0.2l-0.2-6.3c0,0,5.4-0.2,10.3-0.2
			c3,0,11.9,0,18.3,6.3c4.7,4.7,4.7,12,4.7,16v28.9l-3,0.2C238.7,73.7,228.6,74.4,220.2,74.4z M226.3,47.6c-5.6,0-9.7,1.1-12.6,3.2
			c-2.6,2-3.8,4.5-3.8,8c0,3.1,0.9,6.3,2.5,7.8c1.8,1.5,4.5,2.3,7.9,2.3s7.1-0.1,10.4-0.2c2.8-0.1,5.1-2.4,5.1-5.3V53.2
			c0-2.6-2-4.8-4.6-5.3C229.3,47.7,227.7,47.6,226.3,47.6z"/>
	</g>
	<g>
		<path class="st0" d="M270.6,74.4c-6.8,0-12.7-2.4-16.7-6.9c-4-4.4-6.1-10.8-6.1-18.7c0-7.7,2.3-14.1,7-19c4.7-5,10.6-7.5,17.6-7.5
			c3.9,0,7,0.3,9.8,0.9c1.2,0.2,2.5,0.7,3.7,1.1V0.1h6.5v73.3C292.2,73.5,274.8,74.4,270.6,74.4z M272.3,28.7
			c-5.3,0-9.5,1.8-12.9,5.5c-3.5,3.7-5.3,8.6-5.3,14.8s1.5,11.3,4.5,14.4c2.8,3.1,7.1,5.6,12,5.6c2.3,0,6.3-0.1,10.2-0.3
			c2.8-0.1,5.1-2.4,5.1-5.3v-6V34.7c0-2.4-1.6-4.5-3.9-5c-0.4-0.1-0.8-0.2-1.2-0.3C278.5,28.9,275.7,28.7,272.3,28.7z"/>
	</g>
	<g>
		<g>
			<path class="st0" d="M8.6,74.3C8.2,74.1,0,68.3,0,60.2V0.1h6.5v60.1c0,4.8,5.8,8.9,5.8,8.9L8.6,74.3z"/>
		</g>
		<g>
			<path class="st0" d="M38.2,74.4c-7.7,0-13.8-2.5-18.1-7.3s-6.3-11.2-6.3-18.8c0-7.5,2.3-13.8,6.7-18.6c4.5-4.9,10.5-7.4,17.8-7.4
				c7.7,0,13.7,2.4,18.1,7.1c4.3,4.7,6.3,11.1,6.3,18.8c0,7.9-2.2,14.2-6.5,18.9C51.8,71.9,45.7,74.4,38.2,74.4z M38.2,28.4
				c-5.5,0-9.7,1.8-13,5.4c-3.4,3.7-5,8.4-5,14.3c0,6.2,1.5,11.1,4.8,14.7c3.2,3.5,7.4,5.3,13.2,5.3c5.7,0,10-1.8,13.1-5.1
				c3.3-3.6,4.8-8.4,4.8-14.8c0-6.2-1.6-11.2-4.7-14.7C48.4,30.1,44.1,28.4,38.2,28.4z"/>
		</g>
		<g>
			<path class="st0" d="M87.6,93c-5,0-13-0.3-13.3-0.3l0.3-6.3c0.1,0,8.2,0.3,13.1,0.3c4.5,0,10.5,0,14.3-3.8
				c2.3-2.3,3.4-5.9,3.4-11.2c0,0,0-0.1,0-0.2c-1.1,0.5-2.2,1-3,1.3c-3.5,1.2-6.8,1.4-11.4,1.4c-7.4,0-13.3-2.3-17.6-6.9
				c-4.3-4.5-6.3-10.8-6.3-18.7c0-8,2.4-14.4,7.2-19.3s11.1-7.2,18.5-7.2c2.4,0,11.2,0.4,16.2,0.7l3.1,0.1v9c0,0-0.1,36.9-0.1,39.7
				c0,7-1.8,12-5.3,15.5C100.8,93,92.9,93,87.6,93z M92.7,28.6c-5.7,0-10.3,1.8-13.9,5.4s-5.4,8.4-5.4,14.8c0,6.2,1.5,11.2,4.7,14.4
				C81.2,66.5,85.4,68,91,68c3.9,0,6.7-0.2,9.3-1.1c0.5-0.2,1.3-0.5,2.2-1c1.8-0.9,3-2.7,3-4.7c0-8.4,0.1-20.5,0.1-27.1
				c0-2.8-2.2-5.1-5.1-5.3C96.4,28.7,93.7,28.6,92.7,28.6z"/>
		</g>
		<g>
			<path class="st0" d="M171.1,73.5h-6.5V45.8c0-9-1.6-12.5-3.1-13.9c-2.2-2.2-5.6-3.3-11.1-3.3h-0.3c-1.6,0-5.5,0.5-9.2,1.1
				c-2.6,0.4-4.5,2.6-4.5,5.3v38.6h-6.3V23.3c0,0,16.1-1,20.1-1c0.2,0,0.3,0,0.4,0c4.9,0.1,11.2,0.8,15.5,5.3
				c3.3,3.4,4.8,9.2,4.8,18.3L171.1,73.5L171.1,73.5z"/>
		</g>
		<g>
			<g>
				<rect x="117.5" y="23.2" class="st0" width="6.5" height="50.3"/>
			</g>
			<path class="st0" d="M120.6,0c-1.3,0-2.3,0.4-3.2,1.3s-1.3,1.9-1.3,3.2s0.4,2.3,1.3,3.2s2,1.3,3.2,1.3h4.6V4.5
				c0-1.3-0.4-2.3-1.3-3.2C122.9,0.4,121.9,0,120.6,0z"/>
		</g>
	</g>
	<g>
		<g>
			<rect x="298.1" y="23.2" class="st0" width="6.5" height="50.3"/>
		</g>
		<path class="st0" d="M304.3,1.5c-0.9-0.9-1.9-1.2-3.1-1.2s-2.2,0.4-3.1,1.2c-0.9,0.9-1.3,1.8-1.3,3s0.4,2.2,1.3,3
			c0.9,0.9,1.9,1.2,3.1,1.2h4.3V4.5C305.5,3.3,305.1,2.4,304.3,1.5z"/>
	</g>
	<path class="st0" d="M198,22.3c-0.1,0-0.3,0-0.4,0c-3.9,0-20.1,1-20.1,1v50.3h6.5V34.9c0-2.6,2-4.8,4.5-5.3
		c3.7-0.5,7.5-1.1,9.2-1.1h0.3c2.3,0,3.8-0.1,5.8,0.1v-6.5C202.1,22,200.2,22.3,198,22.3z"/>
	<g>
		<path class="st0" d="M391.4,61.1c-0.3,8.9-6.9,13.2-18.7,13.2c-6.8,0-15.5-0.9-15.5-0.9v-6.8c0,0,4,1.3,15.3,1.3
			c5.4,0,11.8-1.2,12.5-6.9c1.6-14.6-28.3-2.8-28.3-23.9c0-7.1,4.7-13.9,18.2-13.9c5.4,0,15.2,0.4,15.2,0.4v6.9
			c0,0-4.3-1.4-14.3-1.3c-5.3,0-12.4,2.2-12.3,7.8C363.5,51.4,392.2,38.8,391.4,61.1z"/>
	</g>
	<g>
		<path class="st0" d="M392.4,71.1"/>
	</g>
</g>
</svg>
