<svg xmlns="http://www.w3.org/2000/svg" viewBox="0 0 86.39 86.84"><defs><style>.cls-1{fill:#6c6c6c;}</style></defs><title>News-Updates</title><g id="Layer_2" data-name="Layer 2"><g id="Illustration"><path class="cls-1" d="M51.82,78.5H44.94a2,2,0,0,1,0-4.08h6.88a2,2,0,0,1,0,4.08Z"/><path class="cls-1" d="M32.93,78.5h-12a2,2,0,0,1,0-4.08h12a2,2,0,0,1,0,4.08Z"/><path class="cls-1" d="M8.92,78.5H2a2,2,0,0,1-2-2V69.57a2,2,0,0,1,4.08,0v4.84H8.92a2,2,0,0,1,0,4.08Z"/><path class="cls-1" d="M2,59.48a2,2,0,0,1-2-2V45.31a2,2,0,0,1,4.08,0V57.44A2,2,0,0,1,2,59.48ZM2,35.22a2,2,0,0,1-2-2V21.05a2,2,0,0,1,4.08,0V33.18A2,2,0,0,1,2,35.22Z"/><path class="cls-1" d="M2,11a2,2,0,0,1-2-2V2A2,2,0,0,1,2,0H8.92a2,2,0,0,1,0,4.08H4.08V8.92A2,2,0,0,1,2,11Z"/><path class="cls-1" d="M57.44,4.08H45.31a2,2,0,1,1,0-4.08H57.44a2,2,0,0,1,0,4.08Zm-24.26,0H21.05a2,2,0,1,1,0-4.08H33.18a2,2,0,0,1,0,4.08Z"/><path class="cls-1" d="M76.46,11a2,2,0,0,1-2-2V4.08H69.57a2,2,0,0,1,0-4.08h6.88a2,2,0,0,1,2,2V8.92A2,2,0,0,1,76.46,11Z"/><path class="cls-1" d="M76.46,35.61a2,2,0,0,1-2-2V21.24a2,2,0,0,1,4.08,0V33.57A2,2,0,0,1,76.46,35.61Z"/><path class="cls-1" d="M76.46,54.81a2,2,0,0,1-2-2V45.89a2,2,0,1,1,4.08,0v6.88A2,2,0,0,1,76.46,54.81Z"/><path class="cls-1" d="M76.55,86.84a2,2,0,0,1-1.44-.6L61.76,72.9,54.5,80.16a2,2,0,0,1-3.33-.68L34,37.1a2,2,0,0,1,2.66-2.66L79,51.62A2,2,0,0,1,79.71,55l-7.26,7.26L85.8,75.55a2,2,0,0,1,0,2.88L78,86.24A2,2,0,0,1,76.55,86.84ZM61.76,68a2,2,0,0,1,1.44.6L76.55,81.92,81.47,77,68.13,63.65a2,2,0,0,1,0-2.88l6.53-6.53L39.59,40,53.8,75.1l6.53-6.53A2,2,0,0,1,61.76,68Z"/><path class="cls-1" d="M28.49,37.73H24.38a1.84,1.84,0,0,1,0-3.67h4.12a1.84,1.84,0,1,1,0,3.67Z"/><path class="cls-1" d="M40.87,32.51a1.84,1.84,0,0,1-1.3-3.13l2.81-2.81a1.84,1.84,0,0,1,2.6,2.6L42.17,32A1.83,1.83,0,0,1,40.87,32.51Z"/><path class="cls-1" d="M27.82,45.56a1.84,1.84,0,0,1-1.3-3.13l2.81-2.81a1.84,1.84,0,1,1,2.59,2.6L29.11,45A1.83,1.83,0,0,1,27.82,45.56Z"/><path class="cls-1" d="M35.7,30.52a1.84,1.84,0,0,1-1.84-1.84V24.57a1.84,1.84,0,1,1,3.67,0v4.12A1.84,1.84,0,0,1,35.7,30.52Z"/><path class="cls-1" d="M30.62,32.51a1.83,1.83,0,0,1-1.3-.54l-2.81-2.81a1.84,1.84,0,0,1,2.6-2.6l2.81,2.81a1.84,1.84,0,0,1-1.3,3.13Z"/></g></g></svg>