<svg xmlns="http://www.w3.org/2000/svg" viewBox="0 0 99.68 92.87"><defs><style>.cls-1{fill:#6c6c6c;}</style></defs><title>Training</title><g id="Layer_2" data-name="Layer 2"><g id="Illustration"><path class="cls-1" d="M82.56,38.85a17.15,17.15,0,0,0,12.23-4.91c5-5,6.3-12.95,3.26-20.19a2,2,0,0,0-3.22-.63l-9,9a2,2,0,0,1-2.73,0l-5.53-5.52a1.94,1.94,0,0,1,0-2.73l9-9.05a2,2,0,0,0-.63-3.22A20.53,20.53,0,0,0,78,0,17.09,17.09,0,0,0,65.75,4.9c-4.65,4.65-6.11,11.6-3.93,18.39L52,33.17l-9.48-9.48h0L39.69,20.9,50.57,10a3.78,3.78,0,0,0,1.18-3.78,3.77,3.77,0,0,0-3.09-2.5L32,.4a8.71,8.71,0,0,0-7.3,2.21L1.54,25.73a5.24,5.24,0,0,0,0,7.42l9.25,9.25a5.24,5.24,0,0,0,3.71,1.53,5.16,5.16,0,0,0,3.7-1.53l4.53-4.53,2.79,2.79h0L35,50.13l-4.61,4.6A20.12,20.12,0,0,0,25.12,54a17.15,17.15,0,0,0-12.23,4.91c-5,5-6.3,12.95-3.25,20.19a2,2,0,0,0,3.21.63l9.05-9a2,2,0,0,1,2.73,0l5.53,5.53a1.88,1.88,0,0,1,.56,1.36A2,2,0,0,1,30.16,79l-9.05,9a2,2,0,0,0-.54,1.78,2,2,0,0,0,1.17,1.44,20.54,20.54,0,0,0,8,1.64A17.08,17.08,0,0,0,41.93,88c4.84-4.84,6.21-12.28,3.64-19.27l4-4L53.87,69h0L76,91.1a6,6,0,0,0,4.31,1.7,7.23,7.23,0,0,0,1-.07,9.19,9.19,0,0,0,5.19-2.67l5.45-5.45c3.17-3.17,3.64-7.87,1-10.48L70.38,51.6l0,0-.11-.1-3.71-3.71,9.87-9.88A20.08,20.08,0,0,0,82.56,38.85Zm-54.26-1h0l-4.18-4.18a2,2,0,0,0-2.79,0L15.4,39.61a1.33,1.33,0,0,1-1.82,0L4.33,30.36A1.3,1.3,0,0,1,4,29.45a1.28,1.28,0,0,1,.38-.92L27.45,5.41a4.91,4.91,0,0,1,3.73-1.13L47.48,7.53l-12,12a2,2,0,0,0,0,2.8l4.18,4.18h0L49.16,36,37.78,47.34ZM63.74,50.54l3.71,3.71.13.13h0L90.13,76.93c1,1,.54,3.31-1,4.89l-5.45,5.45c-1.58,1.58-3.86,2.06-4.89,1L56.66,66.21l0,0,0,0-4.24-4.24L63.74,50.54ZM74.48,34.2,63.73,45l-2.79,2.79L49.56,59.12l-2.79,2.79-4.92,4.92A2,2,0,0,0,41.44,69c2.57,5.85,1.67,12.19-2.3,16.16a13.2,13.2,0,0,1-9.42,3.74,16.46,16.46,0,0,1-3.53-.4L33,81.75a5.87,5.87,0,0,0,0-8.32l-5.52-5.52a5.89,5.89,0,0,0-8.32,0l-6.76,6.76a13.85,13.85,0,0,1,3.34-12.95A13.23,13.23,0,0,1,25.12,58a16.21,16.21,0,0,1,5.2.87,2,2,0,0,0,2-.48l5.44-5.44,2.79-2.79L52,38.75h0L54.74,36h0L65.49,25.21a2,2,0,0,0,.45-2.11c-2.21-5.69-1.21-11.6,2.6-15.41A13.2,13.2,0,0,1,78,4a16.39,16.39,0,0,1,3.53.4l-6.76,6.76a5.89,5.89,0,0,0,0,8.32L80.26,25a5.88,5.88,0,0,0,8.31,0l6.77-6.77a13.87,13.87,0,0,1-3.34,13,13.22,13.22,0,0,1-9.44,3.76,16.49,16.49,0,0,1-6-1.15A2,2,0,0,0,74.48,34.2Z"/></g></g></svg>